<mxfile host="Electron" modified="2024-02-19T21:37:49.745Z" agent="Mozilla/5.0 (Windows NT 10.0; Win64; x64) AppleWebKit/537.36 (KHTML, like Gecko) draw.io/23.1.5 Chrome/120.0.6099.109 Electron/28.1.0 Safari/537.36" etag="ZBVkS9v37dspdAdfsXVv" version="23.1.5" type="device">
  <diagram name="Page-1" id="7e0a89b8-554c-2b80-1dc8-d5c74ca68de4">
    <mxGraphModel dx="1434" dy="836" grid="1" gridSize="10" guides="1" tooltips="1" connect="0" arrows="1" fold="1" page="1" pageScale="1" pageWidth="1100" pageHeight="850" background="none" math="0" shadow="0">
      <root>
        <mxCell id="0" />
        <mxCell id="1" parent="0" />
        <mxCell id="009lb9_xUiSy2Ze32-pO-65" value="ESC" style="rounded=0;whiteSpace=wrap;html=1;fontFamily=Helvetica;fontSize=16;fontColor=default;labelBackgroundColor=default;fillColor=none;dashed=1;strokeWidth=2;labelPosition=center;verticalLabelPosition=top;align=center;verticalAlign=bottom;" vertex="1" parent="1">
          <mxGeometry x="320" y="60" width="310" height="330" as="geometry" />
        </mxCell>
        <mxCell id="009lb9_xUiSy2Ze32-pO-105" value="Back EMF" style="edgeStyle=orthogonalEdgeStyle;rounded=0;orthogonalLoop=1;jettySize=auto;html=1;exitX=1;exitY=0.5;exitDx=0;exitDy=0;strokeColor=default;align=right;verticalAlign=middle;fontFamily=Helvetica;fontSize=16;fontColor=default;labelBackgroundColor=default;endArrow=classic;endFill=1;horizontal=0;labelPosition=left;verticalLabelPosition=middle;" edge="1" parent="1" source="009lb9_xUiSy2Ze32-pO-43" target="009lb9_xUiSy2Ze32-pO-56">
          <mxGeometry x="0.2513" y="-8" relative="1" as="geometry">
            <mxPoint as="offset" />
          </mxGeometry>
        </mxCell>
        <mxCell id="009lb9_xUiSy2Ze32-pO-43" value="&lt;div style=&quot;font-size: 16px;&quot;&gt;&lt;font style=&quot;font-size: 16px;&quot;&gt;Inverter Circuit&lt;/font&gt;&lt;/div&gt;" style="rounded=0;whiteSpace=wrap;html=1;fontFamily=Helvetica;labelPosition=center;verticalLabelPosition=middle;align=center;verticalAlign=middle;textDirection=ltr;horizontal=1;fontSize=16;" vertex="1" parent="1">
          <mxGeometry x="357" y="69.27" width="103" height="90.73" as="geometry" />
        </mxCell>
        <mxCell id="009lb9_xUiSy2Ze32-pO-51" value="&lt;font style=&quot;font-size: 16px;&quot;&gt;&amp;nbsp;Gating Singals (u)&lt;/font&gt;" style="edgeStyle=orthogonalEdgeStyle;rounded=0;orthogonalLoop=1;jettySize=auto;html=1;entryX=0.5;entryY=1;entryDx=0;entryDy=0;strokeColor=default;align=left;verticalAlign=middle;fontFamily=Helvetica;fontSize=11;fontColor=default;labelBackgroundColor=none;endArrow=classic;endFill=1;textDirection=ltr;labelPosition=right;verticalLabelPosition=middle;horizontal=1;" edge="1" parent="1" source="009lb9_xUiSy2Ze32-pO-52" target="009lb9_xUiSy2Ze32-pO-43">
          <mxGeometry x="-0.0038" relative="1" as="geometry">
            <mxPoint as="offset" />
          </mxGeometry>
        </mxCell>
        <mxCell id="009lb9_xUiSy2Ze32-pO-52" value="&lt;font style=&quot;font-size: 16px;&quot;&gt;PWM &lt;br&gt;Generator&lt;/font&gt;" style="rounded=0;whiteSpace=wrap;html=1;fontFamily=Helvetica;fontSize=11;fontColor=default;labelBackgroundColor=default;" vertex="1" parent="1">
          <mxGeometry x="368.5" y="210" width="80" height="60" as="geometry" />
        </mxCell>
        <mxCell id="009lb9_xUiSy2Ze32-pO-53" style="edgeStyle=orthogonalEdgeStyle;rounded=0;orthogonalLoop=1;jettySize=auto;html=1;exitX=0.5;exitY=1;exitDx=0;exitDy=0;strokeColor=default;align=center;verticalAlign=middle;fontFamily=Helvetica;fontSize=11;fontColor=default;labelBackgroundColor=default;endArrow=none;endFill=0;" edge="1" parent="1" source="009lb9_xUiSy2Ze32-pO-52" target="009lb9_xUiSy2Ze32-pO-52">
          <mxGeometry relative="1" as="geometry" />
        </mxCell>
        <mxCell id="009lb9_xUiSy2Ze32-pO-54" value="Phase" style="edgeStyle=orthogonalEdgeStyle;rounded=0;orthogonalLoop=1;jettySize=auto;html=1;strokeColor=default;align=center;verticalAlign=top;fontFamily=Helvetica;fontSize=16;fontColor=default;labelBackgroundColor=default;endArrow=classic;endFill=1;labelPosition=center;verticalLabelPosition=bottom;" edge="1" parent="1" source="009lb9_xUiSy2Ze32-pO-56" target="009lb9_xUiSy2Ze32-pO-52">
          <mxGeometry relative="1" as="geometry" />
        </mxCell>
        <mxCell id="009lb9_xUiSy2Ze32-pO-55" value="&lt;font style=&quot;font-size: 16px;&quot;&gt;Phase&lt;/font&gt;" style="edgeStyle=orthogonalEdgeStyle;rounded=0;orthogonalLoop=1;jettySize=auto;html=1;exitX=0.5;exitY=1;exitDx=0;exitDy=0;entryX=1;entryY=0.5;entryDx=0;entryDy=0;strokeColor=default;align=right;verticalAlign=bottom;fontFamily=Helvetica;fontSize=11;fontColor=default;labelBackgroundColor=default;endArrow=classic;endFill=1;labelPosition=left;verticalLabelPosition=top;" edge="1" parent="1" source="009lb9_xUiSy2Ze32-pO-56" target="009lb9_xUiSy2Ze32-pO-58">
          <mxGeometry relative="1" as="geometry" />
        </mxCell>
        <mxCell id="009lb9_xUiSy2Ze32-pO-56" value="&lt;span style=&quot;font-size: 16px;&quot;&gt;EMF Detection Circuit&lt;/span&gt;" style="rounded=0;whiteSpace=wrap;html=1;fontFamily=Helvetica;fontSize=11;fontColor=default;labelBackgroundColor=default;" vertex="1" parent="1">
          <mxGeometry x="540" y="210" width="76.5" height="60" as="geometry" />
        </mxCell>
        <mxCell id="009lb9_xUiSy2Ze32-pO-57" value="" style="edgeStyle=orthogonalEdgeStyle;rounded=0;orthogonalLoop=1;jettySize=auto;html=1;strokeColor=default;align=center;verticalAlign=middle;fontFamily=Helvetica;fontSize=11;fontColor=default;labelBackgroundColor=default;endArrow=classic;endFill=1;labelBorderColor=none;" edge="1" parent="1" source="009lb9_xUiSy2Ze32-pO-58" target="009lb9_xUiSy2Ze32-pO-52">
          <mxGeometry relative="1" as="geometry">
            <Array as="points">
              <mxPoint x="432" y="362.5" />
              <mxPoint x="432" y="362.5" />
            </Array>
          </mxGeometry>
        </mxCell>
        <mxCell id="009lb9_xUiSy2Ze32-pO-60" value="&lt;font style=&quot;font-size: 16px;&quot;&gt;&amp;nbsp; V&lt;sub&gt;in&lt;/sub&gt;&lt;/font&gt;" style="edgeLabel;html=1;align=left;verticalAlign=middle;resizable=0;points=[];fontFamily=Helvetica;fontSize=11;fontColor=default;labelBackgroundColor=none;labelPosition=right;verticalLabelPosition=middle;" vertex="1" connectable="0" parent="009lb9_xUiSy2Ze32-pO-57">
          <mxGeometry x="-0.0786" y="1" relative="1" as="geometry">
            <mxPoint as="offset" />
          </mxGeometry>
        </mxCell>
        <mxCell id="009lb9_xUiSy2Ze32-pO-58" value="&lt;span style=&quot;font-size: 16px;&quot;&gt;ESC&#39;s Current and Speed Controller&lt;/span&gt;" style="rounded=0;whiteSpace=wrap;html=1;fontFamily=Helvetica;fontSize=11;fontColor=default;labelBackgroundColor=default;" vertex="1" parent="1">
          <mxGeometry x="341.75" y="300" width="133.5" height="80" as="geometry" />
        </mxCell>
        <mxCell id="009lb9_xUiSy2Ze32-pO-103" value="&lt;font style=&quot;font-size: 16px;&quot;&gt;3 Phase Voltages&lt;/font&gt;" style="edgeStyle=orthogonalEdgeStyle;rounded=0;orthogonalLoop=1;jettySize=auto;html=1;exitX=1;exitY=0.5;exitDx=0;exitDy=0;strokeColor=default;align=center;verticalAlign=bottom;fontFamily=Helvetica;fontSize=11;fontColor=default;labelBackgroundColor=default;endArrow=classic;endFill=1;labelPosition=center;verticalLabelPosition=top;" edge="1" parent="1" source="009lb9_xUiSy2Ze32-pO-43" target="009lb9_xUiSy2Ze32-pO-117">
          <mxGeometry relative="1" as="geometry">
            <mxPoint x="647.8649999999998" y="114.63499999999999" as="targetPoint" />
            <mxPoint as="offset" />
          </mxGeometry>
        </mxCell>
        <mxCell id="009lb9_xUiSy2Ze32-pO-107" value="Throttle Command &lt;br style=&quot;font-size: 16px;&quot;&gt;to ESC in PWM (u&lt;sub&gt;p&lt;/sub&gt;)" style="endArrow=classic;html=1;rounded=0;strokeColor=default;align=right;verticalAlign=middle;fontFamily=Helvetica;fontSize=16;fontColor=default;labelBackgroundColor=default;edgeStyle=orthogonalEdgeStyle;entryX=0;entryY=0.5;entryDx=0;entryDy=0;labelPosition=left;verticalLabelPosition=middle;" edge="1" parent="1" target="009lb9_xUiSy2Ze32-pO-58">
          <mxGeometry x="0.0042" width="50" height="50" relative="1" as="geometry">
            <mxPoint x="260" y="340" as="sourcePoint" />
            <mxPoint x="100" y="314.75" as="targetPoint" />
            <mxPoint as="offset" />
          </mxGeometry>
        </mxCell>
        <mxCell id="009lb9_xUiSy2Ze32-pO-117" value="&lt;font style=&quot;font-size: 16px;&quot;&gt;BLDC Motor with Propeler&lt;/font&gt;" style="rounded=0;whiteSpace=wrap;html=1;fontFamily=Helvetica;fontSize=11;fontColor=default;labelBackgroundColor=default;" vertex="1" parent="1">
          <mxGeometry x="650" y="84.63" width="120" height="60" as="geometry" />
        </mxCell>
        <mxCell id="009lb9_xUiSy2Ze32-pO-119" value="" style="edgeStyle=orthogonalEdgeStyle;rounded=0;orthogonalLoop=1;jettySize=auto;html=1;strokeColor=default;align=center;verticalAlign=middle;fontFamily=Helvetica;fontSize=11;fontColor=default;labelBackgroundColor=default;endArrow=classic;endFill=1;" edge="1" parent="1" source="009lb9_xUiSy2Ze32-pO-118" target="009lb9_xUiSy2Ze32-pO-43">
          <mxGeometry relative="1" as="geometry" />
        </mxCell>
        <mxCell id="009lb9_xUiSy2Ze32-pO-118" value="&lt;font style=&quot;font-size: 16px;&quot;&gt;Battery (V&lt;sub&gt;s&lt;/sub&gt;)&lt;/font&gt;" style="rounded=0;whiteSpace=wrap;html=1;fontFamily=Helvetica;fontSize=11;fontColor=default;labelBackgroundColor=default;" vertex="1" parent="1">
          <mxGeometry x="200" y="91.94999999999999" width="100" height="45.37" as="geometry" />
        </mxCell>
      </root>
    </mxGraphModel>
  </diagram>
</mxfile>
